<svg xmlns="http://www.w3.org/2000/svg" xmlns:xlink="http://www.w3.org/1999/xlink" style="enable-background:new 0 0 1366 768" id="Layer_1" x="0" y="0" version="1.1" viewBox="0 0 1366 768" xml:space="preserve"><style type="text/css">.st0{fill:gray}.st0,.st1,.st2,.st3,.st4,.st5,.st6{stroke:#000;stroke-miterlimit:10}.st1{fill:#1a1a1a}.st2{fill:#333}.st3{fill:#666}.st4{fill:#fcee21}.st5{fill:none}.st6{fill:#f15a24}.st7{fill:#b3b3b3}.st8{fill:#fff}.st10,.st9{stroke:#000;stroke-miterlimit:10}.st9{fill:#4d4d4d}.st10{fill:#0071bc}.st11{fill:#999}.st11,.st12{stroke:#000;stroke-miterlimit:10}.st13{fill:none;stroke-width:5;stroke-linecap:round;stroke-linejoin:round}.st13,.st14,.st15{stroke:#009245}.st14{fill:none;stroke-width:5;stroke-linecap:round;stroke-linejoin:round;stroke-dasharray:0,9.0536}.st15{stroke-dasharray:0,8.7669}.st15,.st16,.st17,.st18{fill:none;stroke-width:5;stroke-linecap:round;stroke-linejoin:round}.st16{stroke:#009245;stroke-dasharray:0,9.1006}.st17,.st18{stroke:#c1272d}.st18{stroke-dasharray:0,9.1006}.st19{fill:#c1272d}</style><g><polygon points="901.3 610.4 905.2 571.7 870.6 356.5 852.4 356.5" class="st0"/><path d="M842.6,270l-45.4-29.7l-19.9-106.8c-4.9-26.3-28.9-43.9-53.7-39.3l0,0c-24.7,4.6-40.8,29.7-35.9,56l47.8,256.4 c4.9,26.3,28.9,43.9,53.7,39.3l0,0c24.7-4.6,40.8-29.7,35.9-56l0,0l30.8-26.8l38.8,0l-8.8-93H842.6z" class="st1"/><polygon points="869.1 325.1 932.5 315.4 911.5 251.9 863.5 259.5" class="st2"/><path d="M954.1,243.9l30.1-43.8L964.3,93.2c-4.9-26.3,10.4-51.2,34.1-55.7l0,0c23.7-4.4,47,13.3,51.9,39.6l47.8,256.4 c4.9,26.3-10.4,51.2-34.1,55.7v0c-23.7,4.4-47-13.3-51.9-39.6l0,0l-37-14.2l-34.7,13.7l-24.9-90L954.1,243.9z" class="st1"/><polygon points="1072.2 409.4 894.6 441.2 869.1 325.1 913.7 298.6 965 290.6 1023.2 300.5" class="st3"/><polygon points="1113 592.8 935.1 628.1 894.6 441.2 1072.2 409.4" class="st3"/><path d="M1098.6,636.7l-12.8,10.5c-39.7,32.6-93.8,41.5-141.8,23.4l-5.2-2l-3.8-40.5l177.9-35.3L1098.6,636.7z" class="st3"/><polygon points="894.6 441.2 935.1 628.1 938.8 668.6 898.1 551.2 869.1 325.1" class="st3"/><circle id="Scanner" cx="989.5" cy="496.9" r="58.8" class="st4"/><path d="M1053,544.3l-0.1,0c-14.4,19.2-37.4,31.7-63.3,31.7c-16.3,0-31.4-4.9-44-13.3l0,0c-5.8,1-9.6,6.5-8.5,12.3 l9.6,50.9l127-25.2l-8.6-47.9C1064.1,547.1,1058.7,543.3,1053,544.3z" class="st5"/><path d="M1055.3,481.2L1055.3,481.2l-15-66.1l-130.6,23.4l12.6,64.8c0.4,4.3,1.2,8.5,2.4,12.6l0,0.1l0,0 c8.3,28,34.1,48.4,64.8,48.4c37.3,0,67.6-30.3,67.6-67.6C1057.1,491.5,1056.5,486.2,1055.3,481.2z" class="st5"/><circle cx="934" cy="451.5" r="3.8" class="st6"/><circle cx="926.9" cy="462.6" r="3.8" class="st5"/><circle cx="924.3" cy="453.2" r="3.8" class="st5"/><path d="M970.5,507.6c0,0-0.7,13.6,13,12.3c13.7-1.3,41.8-19.7,42.6-39.7c0,0-2,45.8-45.6,48.8 c-16.7,1.1-18.5-11.2-14.4-26.9L970.5,507.6z" class="st7"/><path d="M984.1,510.8l-28.4-6.6c-2.3-0.5-3.2-3.3-1.7-5.1l14.8-17.5c0.5-0.6,1.3-1,2.1-1.1l24.9-2.3 c2.4-0.2,4.1,2.2,3.2,4.4L987.7,509C987.1,510.4,985.6,511.2,984.1,510.8z" class="st8"/><polygon points="1098.6 636.7 1064.1 768 938.8 768 938.8 668.6" class="st0"/><polygon points="1052.3 628.1 982.7 644.8 981.5 631.9 1052.3 616.7" class="st9"/><polygon points="1058.5 596.5 960.6 616.7 955.9 594.5 1053.6 574.7" class="st10"/><path d="M1040.3,415.1l-130.6,23.4l-21.3-87.3c-4.4-17.9,7.2-35.7,25.3-39.1l38.7-7.2c21.7-4,43.4,7.5,52.2,27.8 L1040.3,415.1z" class="st5"/><line x1="878.1" x2="1039.7" y1="365.9" y2="337.1" class="st5"/><line x1="890.7" x2="1007.5" y1="360.3" y2="339.6" class="st5"/><line x1="923" x2="989.5" y1="375.6" y2="363.2" class="st5"/><path d="M999.4,356.6l-86.1,16.8c-2.7,0.5-4.3,3.2-3.6,5.9l0,0c0.7,2.3,3,3.8,5.3,3.3l86.4-15.7 c2.8-0.5,4.5-3.4,3.6-6.1l-0.4-1.1C1004,357.5,1001.7,356.2,999.4,356.6z" class="st5"/><polygon points="950.8 292.8 926.4 296.6 885.8 175 908.2 172.4" class="st11"/><polygon points="926.4 296.6 918.3 297.9 885.8 202.7 885.8 175" class="st0"/><polygon points="938.8 668.6 938.8 768 929.3 768 901.3 610.4 905.2 571.7" class="st0"/><path d="M919.9,256.4l-32.1,5.6c-24.6,4.3-47.9-12.7-51.3-37.5L814.9,49.4c-1.2-9.9,6.5-18.6,16.5-18.6h90.5 c8.9,0,16.2,7.1,16.6,16l6.5,179.7C944.9,241.2,934.4,253.8,919.9,256.4z" class="st1"/><polygon points="932.5 130.5 839 130.5 829.2 48.1 922.7 48.1" class="st12"/><g><g><g><line x1="850.2" x2="850.2" y1="85.1" y2="85.1" class="st13"/><line x1="849.5" x2="847.6" y1="94.1" y2="116.6" class="st14"/><line x1="847.2" x2="847.2" y1="121.2" y2="121.2" class="st13"/><line x1="855.9" x2="877.9" y1="121.1" y2="121" class="st15"/><line x1="882.2" x2="882.2" y1="121" y2="121" class="st13"/></g></g><g><g><line x1="912.5" x2="912.5" y1="57.8" y2="57.8" class="st13"/><line x1="906" x2="850.4" y1="64.2" y2="118" class="st16"/><line x1="847.2" x2="847.2" y1="121.2" y2="121.2" class="st13"/></g></g></g></g><g><polygon points="470.1 694.9 474 656.2 439.4 441 421.2 441" class="st0"/><path d="M411.3,354.5l-45.4-29.7L346,217.9c-4.9-26.3-28.9-43.9-53.7-39.3l0,0c-24.7,4.6-40.8,29.7-35.9,56L304.2,491 c4.9,26.3,28.9,43.9,53.7,39.3h0c24.7-4.6,40.8-29.7,35.9-56l0,0l30.8-26.8l38.8,0l-8.8-93H411.3z" class="st1"/><polygon points="437.9 409.6 501.3 399.9 480.3 336.3 432.3 343.9" class="st2"/><path d="M522.9,328.3l30.1-43.8l-19.9-106.8c-4.9-26.3,10.4-51.2,34.1-55.7l0,0c23.7-4.4,47,13.3,51.9,39.6l47.8,256.4 c4.9,26.3-10.4,51.2-34.1,55.7h0c-23.7,4.4-47-13.3-51.9-39.6l0,0l-37-14.2l-34.7,13.7l-24.9-90L522.9,328.3z" class="st1"/><polygon points="641 493.8 463.4 525.7 437.9 409.6 482.5 383 533.8 375.1 592 385" class="st3"/><polygon points="681.8 677.3 503.9 712.6 463.4 525.7 641 493.8" class="st3"/><path d="M667.4,721.2l-12.8,10.5c-39.7,32.6-93.8,41.5-141.8,23.4l-5.2-2l-3.8-40.5l177.9-35.3L667.4,721.2z" class="st3"/><polygon points="463.4 525.7 503.9 712.6 507.6 753.1 466.9 635.6 437.9 409.6" class="st3"/><circle id="Scanner_3_" cx="558.3" cy="581.3" r="58.8" class="st4"/><path d="M621.8,628.7l-0.1,0c-14.4,19.2-37.4,31.7-63.3,31.7c-16.3,0-31.4-4.9-44-13.3l0,0c-5.8,1-9.6,6.5-8.5,12.3 l9.6,50.9l127-25.2l-8.6-47.9C632.9,631.5,627.5,627.8,621.8,628.7z" class="st5"/><path d="M624.1,565.6L624.1,565.6l-15-66.1L478.5,523l12.6,64.8c0.4,4.3,1.2,8.5,2.4,12.6l0,0.1l0,0 c8.3,28,34.1,48.4,64.8,48.4c37.3,0,67.6-30.3,67.6-67.6C625.9,575.9,625.3,570.7,624.1,565.6z" class="st5"/><circle cx="502.8" cy="536" r="3.8" class="st6"/><circle cx="495.7" cy="547.1" r="3.8" class="st5"/><circle cx="493.1" cy="537.7" r="3.8" class="st5"/><path d="M539.3,592.1c0,0-0.7,13.6,13,12.3c13.7-1.3,41.8-19.7,42.6-39.7c0,0-2,45.8-45.6,48.8 c-16.7,1.1-18.5-11.2-14.4-26.9L539.3,592.1z" class="st7"/><path d="M552.9,595.3l-28.4-6.6c-2.3-0.5-3.2-3.3-1.7-5.1l14.8-17.5c0.5-0.6,1.3-1,2.1-1.1l24.9-2.3 c2.4-0.2,4.1,2.2,3.2,4.4l-11.3,26.4C555.9,594.9,554.4,595.6,552.9,595.3z" class="st8"/><polygon points="667.4 721.2 655.1 768 507.6 768 507.6 753.1" class="st0"/><polygon points="621.1 712.6 551.5 729.2 550.3 716.4 621.1 701.2" class="st9"/><polygon points="627.3 680.9 529.4 701.2 524.7 679 622.4 659.2" class="st10"/><path d="M609.1,499.5L478.5,523l-21.3-87.3c-4.4-17.9,7.2-35.7,25.3-39.1l38.7-7.2c21.7-4,43.4,7.5,52.2,27.8 L609.1,499.5z" class="st5"/><line x1="446.9" x2="608.5" y1="450.4" y2="421.5" class="st5"/><line x1="459.5" x2="576.3" y1="444.8" y2="424" class="st5"/><line x1="491.8" x2="558.3" y1="460.1" y2="447.7" class="st5"/><path d="M568.2,441.1l-86.1,16.8c-2.7,0.5-4.3,3.2-3.6,5.9l0,0c0.7,2.3,3,3.8,5.3,3.3l86.4-15.7 c2.8-0.5,4.5-3.4,3.6-6.1l-0.4-1.1C572.8,442,570.5,440.6,568.2,441.1z" class="st5"/><polygon points="519.6 377.3 495.2 381.1 454.6 259.5 477 256.8" class="st11"/><polygon points="495.2 381.1 487.1 382.3 454.6 287.2 454.6 259.5" class="st0"/><polygon points="507.6 753.1 507.6 768 483.1 768 470.1 694.9 474 656.2" class="st0"/><path d="M488.6,340.9l-32.1,5.6c-24.6,4.3-47.9-12.7-51.3-37.5l-21.6-175.1c-1.2-9.9,6.5-18.6,16.5-18.6h90.5 c8.9,0,16.2,7.1,16.6,16l6.5,179.7C513.7,325.7,503.2,338.3,488.6,340.9z" class="st1"/><polygon points="501.3 215 407.8 215 398 132.5 491.5 132.5" class="st12"/><g><g><g><line x1="483.2" x2="483.2" y1="141.3" y2="141.3" class="st17"/><line x1="476.6" x2="421.1" y1="147.6" y2="201.4" class="st18"/><line x1="417.8" x2="417.8" y1="204.6" y2="204.6" class="st17"/></g></g><g><g><line x1="487.3" x2="487.3" y1="199.7" y2="199.7" class="st17"/><line x1="480" x2="417.4" y1="194.3" y2="148.9" class="st18"/><line x1="413.7" x2="413.7" y1="146.2" y2="146.2" class="st17"/></g></g></g></g><g><polygon points="1327.6 521.2 1331.5 482.5 1296.9 267.3 1278.7 267.3" class="st0"/><path d="M1268.9,180.8l-45.4-29.7l-19.9-106.8c-4.9-26.3-28.9-43.9-53.7-39.3l0,0c-24.7,4.6-40.8,29.7-35.9,56 l47.8,256.4c4.9,26.3,28.9,43.9,53.7,39.3l0,0c24.7-4.6,40.8-29.7,35.9-56l0,0l30.8-26.8l38.8,0l-8.8-93H1268.9z" class="st1"/><polygon points="1295.4 235.9 1358.8 226.2 1337.8 162.6 1289.8 170.2" class="st2"/><polygon points="1365.1 160.7 1365.1 254.2 1357.4 226.4 1355.6 220.1 1352.1 207.5 1349.8 199 1349.8 199 1349.2 197 1349.2 196.7 1341.7 169.9 1362.3 161.8" class="st1"/><polygon points="1365.1 205.4 1365.1 344.1 1336 349.3 1320.9 352 1304.4 276.7 1303.7 273.8 1295.4 235.8 1316.1 223.5 1340 209.3 1344.6 208.6 1352.1 207.5 1352.6 207.4 1352.6 207.4 1352.7 207.4" class="st3"/><polygon points="1365.1 344.1 1365.1 538.2 1361.4 538.9 1320.9 352 1336 349.3" class="st3"/><polygon points="1365.1 538.2 1365.1 579.4 1361.4 538.9" class="st3"/><polygon points="1320.9 352 1361.4 538.9 1365.1 579.4 1324.4 461.9 1295.4 235.9" class="st3"/><path d="M1365.1,377.9v59.5c-5.1-8.7-8.1-18.9-8.1-29.8C1357,396.8,1360,386.6,1365.1,377.9z" class="st4"/><path d="M1365.1,477.7v17.4l-1.8-9.4c-0.1-0.7-0.2-1.3-0.2-2C1363.2,481.5,1363.9,479.4,1365.1,477.7z" class="st5"/><path d="M1365.1,344.1v108.2c-6.4-7.3-11.2-15.9-14.1-25.4h0l0-0.1c-1.2-4-2-8.3-2.4-12.6l-12.6-64.9L1365.1,344.1z" class="st5"/><circle cx="1360.3" cy="362.3" r="3.8" class="st6"/><circle cx="1353.2" cy="373.4" r="3.8" class="st5"/><circle cx="1350.6" cy="364" r="3.8" class="st5"/><path d="M1365.1,218.3v125.8l-29.1,5.2l-18.3-75l-0.1-0.6l-0.6-2.6l-2.2-9.1c-1.9-8-0.7-16,2.9-22.7 c1.5-2.9,3.5-5.5,5.8-7.8c4.4-4.3,10.1-7.4,16.6-8.6l15.6-2.9l1.1-0.2L1365.1,218.3z" class="st5"/><polyline points="1365.1 265.9 1317.7 274.3 1304.4 276.7" class="st5"/><polyline points="1365.1 262.5 1320.6 270.5 1317 271.1" class="st5"/><line x1="1349.3" x2="1365.1" y1="286.4" y2="283.5" class="st5"/><path d="M1365.1,279.2v9.8l-23.8,4.3c-0.3,0-0.6,0.1-0.8,0.1c-2.1,0-3.9-1.4-4.5-3.4c-0.7-2.6,0.9-5.3,3.6-5.9 L1365.1,279.2z" class="st5"/><polygon points="1365.1 169.7 1365.1 205.4 1352.7 207.4 1349.2 197 1349.2 196.7 1339.7 168.3 1337.8 162.6 1312.1 85.8 1334.5 83.1 1361.5 159.5 1362.3 161.8" class="st11"/><polygon points="1352.7 207.4 1344.6 208.6 1312.1 113.5 1312.1 85.8" class="st0"/><polygon points="1365.1 579.4 1365.1 732.3 1327.6 521.2 1331.5 482.5" class="st0"/><path d="M1365.1,0v155.5c-1.1,1.4-2.3,2.8-3.6,4c-4.2,3.9-9.4,6.6-15.4,7.6l-6.5,1.1h0l-8.3,1.5l-17.2,3 c-8.5,1.5-16.8,0.4-24.2-2.6c-14.1-5.8-24.9-18.7-27-35L1246.1,0H1365.1z" class="st1"/><polygon points="1358.8 41.3 1265.3 41.3 1260.4 0 1353.9 0" class="st12"/><g><g><g><path d="M1309.7,0c0,0.2,0,0.3-0.1,0.5c0,0.2-0.1,0.3-0.1,0.5c-0.1,0.1-0.1,0.3-0.2,0.4c0,0,0,0,0,0 c-0.1,0.1-0.2,0.3-0.3,0.4c-0.2,0.2-0.5,0.4-0.8,0.5c-0.3,0.1-0.6,0.2-1,0.2c-0.7,0-1.3-0.3-1.8-0.7c-0.1-0.1-0.2-0.2-0.3-0.4 c-0.1-0.1-0.2-0.3-0.2-0.4c-0.1-0.2-0.1-0.3-0.1-0.5c0-0.2,0-0.3,0-0.5H1309.7z" class="st19"/></g><g><path d="M1279.9,26.5c-1-1-0.9-2.6,0.1-3.5l0,0c1-1,2.6-0.9,3.5,0.1l0,0c1,1,0.9,2.6-0.1,3.5l0,0 c-0.5,0.5-1.1,0.7-1.7,0.7l0,0C1281,27.2,1280.4,27,1279.9,26.5z M1286.2,20.3c-1-1-0.9-2.6,0.1-3.5l0,0c1-1,2.6-0.9,3.5,0.1 l0,0c1,1,0.9,2.6-0.1,3.5l0,0c-0.5,0.5-1.1,0.7-1.7,0.7l0,0C1287.4,21.1,1286.8,20.8,1286.2,20.3z M1292.6,14.1 c-1-1-0.9-2.6,0.1-3.5l0,0c1-1,2.6-0.9,3.5,0.1l0,0c1,1,0.9,2.6,0,3.5l0,0c-0.5,0.5-1.1,0.7-1.7,0.7l0,0 C1293.8,14.9,1293.1,14.6,1292.6,14.1z M1299,8c-1-1-0.9-2.6,0-3.5l0,0c1-1,2.6-0.9,3.5,0.1l0,0c1,1,0.9,2.6-0.1,3.5l0,0 c-0.5,0.5-1.1,0.7-1.7,0.7l0,0C1300.1,8.7,1299.5,8.5,1299,8z" class="st19"/></g><g><path d="M1275.3,33.4c-0.7,0-1.3-0.3-1.8-0.7c-0.5-0.5-0.7-1.1-0.7-1.8c0-0.2,0-0.3,0.1-0.5c0-0.2,0.1-0.3,0.1-0.5 s0.1-0.3,0.2-0.4c0.1-0.1,0.2-0.3,0.3-0.4c0.9-0.9,2.6-0.9,3.5,0c0.1,0.1,0.2,0.2,0.3,0.4c0.1,0.1,0.2,0.3,0.2,0.4 c0.1,0.1,0.1,0.3,0.1,0.5c0,0.2,0,0.3,0,0.5c0,0.7-0.3,1.3-0.7,1.8C1276.6,33.1,1276,33.4,1275.3,33.4z" class="st19"/></g></g><g><g><path d="M1310.4,0c-0.1,0.4-0.3,0.7-0.6,1c-0.2,0.1-0.3,0.3-0.5,0.4c-0.4,0.2-0.8,0.3-1.3,0.3 c-0.3,0-0.6,0-0.8-0.2c-0.3-0.1-0.7-0.3-0.9-0.6c-0.1-0.1-0.2-0.2-0.3-0.4c-0.1-0.1-0.2-0.3-0.2-0.4c0-0.1,0-0.1,0-0.2H1310.4z" class="st19"/></g></g><g><g><path d="M1310.4,0c-0.1,0.4-0.3,0.7-0.6,1c-0.2,0.1-0.3,0.3-0.5,0.4c-0.4,0.2-0.8,0.3-1.3,0.3 c-0.3,0-0.6,0-0.8-0.2c-0.3-0.1-0.7-0.3-0.9-0.6c-0.1-0.1-0.2-0.2-0.3-0.4c-0.1-0.1-0.2-0.3-0.2-0.4c0-0.1,0-0.1,0-0.2H1310.4z" class="st19"/></g></g><g><g><path d="M1344.8,28.5c-0.2,0-0.3,0-0.5,0c-0.2,0-0.3-0.1-0.5-0.1c-0.1-0.1-0.3-0.1-0.4-0.2 c-0.1-0.1-0.3-0.2-0.4-0.3c-0.5-0.5-0.7-1.1-0.7-1.8c0-0.2,0-0.3,0.1-0.5c0-0.2,0.1-0.3,0.1-0.5s0.1-0.3,0.2-0.4 c0.1-0.1,0.2-0.3,0.3-0.4c0.1-0.1,0.2-0.2,0.4-0.3c0.1-0.1,0.3-0.2,0.4-0.2c0.2-0.1,0.3-0.1,0.5-0.1c0.8-0.2,1.7,0.1,2.3,0.7 c0.1,0.1,0.2,0.2,0.3,0.4c0.1,0.1,0.2,0.3,0.2,0.4c0.1,0.1,0.1,0.3,0.1,0.5c0,0.2,0,0.3,0,0.5c0,0.7-0.3,1.3-0.7,1.8 C1346.1,28.2,1345.5,28.5,1344.8,28.5z" class="st19"/></g><g><path d="M1336.2,22.8c-1.1-0.8-1.4-2.4-0.5-3.5l0,0c0.8-1.1,2.4-1.4,3.5-0.6l0,0c1.1,0.8,1.4,2.4,0.6,3.5l0,0 c-0.5,0.7-1.2,1-2,1l0,0C1337.2,23.3,1336.6,23.1,1336.2,22.8z M1329.1,17.6c-1.1-0.8-1.4-2.4-0.5-3.5l0,0 c0.8-1.1,2.4-1.4,3.5-0.6l0,0c1.1,0.8,1.4,2.4,0.5,3.5l0,0c-0.5,0.7-1.2,1-2,1l0,0C1330,18.1,1329.5,17.9,1329.1,17.6z M1321.9,12.4c-1.1-0.8-1.4-2.4-0.5-3.5l0,0c0.8-1.1,2.4-1.4,3.5-0.6l0,0c1.1,0.8,1.4,2.4,0.5,3.5l0,0c-0.5,0.7-1.2,1-2,1l0,0 C1322.9,12.9,1322.4,12.8,1321.9,12.4z M1314.8,7.3c-1.1-0.8-1.4-2.4-0.6-3.5l0,0c0.8-1.1,2.4-1.4,3.5-0.5l0,0 c1.1,0.8,1.4,2.4,0.6,3.5l0,0c-0.5,0.7-1.2,1-2,1l0,0C1315.8,7.7,1315.2,7.6,1314.8,7.3z" class="st19"/></g><g><path d="M1311.6,0c0,0.2,0,0.3,0,0.5c0,0.2-0.1,0.3-0.1,0.5c-0.1,0.1-0.1,0.3-0.2,0.4c-0.1,0.1-0.2,0.3-0.3,0.4 c-0.5,0.5-1.1,0.7-1.8,0.7c-0.2,0-0.3,0-0.5,0c-0.2,0-0.3-0.1-0.5-0.1c0,0,0,0,0,0c-0.1-0.1-0.3-0.1-0.4-0.2 c-0.1-0.1-0.3-0.2-0.4-0.3c-0.1-0.1-0.1-0.2-0.2-0.2c0,0-0.1-0.1-0.1-0.1c-0.1-0.1-0.2-0.3-0.2-0.4c-0.1-0.2-0.1-0.3-0.1-0.5 c0-0.2,0-0.3,0-0.5H1311.6z" class="st19"/></g></g></g></g><g><polygon points="42.8 751.5 41.2 768 34.7 768 0 588.2 0 536.4 8.2 536.4 9.2 542.8 20.7 614.5 20.8 614.5 42.8 751.4" class="st0"/><path d="M32.2,542.8h-3.3l-13.9,0l-3.5,0H0v-93h23.3l4.1,42.8l0.9,9l0.6,6.8c0,0,0,0,0,0l3,31.1L32.2,542.8z" class="st1"/><polygon points="6.7 504.9 70.1 495.2 49.1 431.7 1.1 439.3" class="st2"/><path d="M91.6,423.7l30.1-43.8l-19.9-106.8c-4.9-26.3,10.4-51.2,34.1-55.7l0,0c23.7-4.4,47,13.3,51.9,39.6l47.8,256.4 c4.9,26.3-10.4,51.2-34.1,55.7h0c-23.7,4.4-47-13.3-51.9-39.6l0,0l-37-14.2L78,528.9L53,439L91.6,423.7z" class="st1"/><polygon points="209.8 589.2 32.2 621.1 6.7 504.9 51.3 478.4 102.6 470.4 160.8 480.3" class="st3"/><polygon points="249.6 768 64 768 32.2 621.1 47.3 618.3 177.9 594.9 209.8 589.2" class="st3"/><polygon points="64 768 48.5 768 42.8 751.5 42.8 751.4 35.7 731 20.8 614.5 20.7 614.5 11.5 542.8 6.7 504.9 15 542.8 15.7 545.7 32.2 621.1" class="st3"/><circle id="Scanner_2_" cx="127.1" cy="676.7" r="58.8" class="st4"/><path d="M209,768H77.1l-2.5-13.2c-0.1-0.7-0.2-1.3-0.2-2c0-5,3.6-9.5,8.7-10.3c12.6,8.4,27.7,13.3,44,13.3 c25.9,0,48.9-12.5,63.3-31.7l0.1,0c5.7-1,11.1,2.8,12.1,8.5L209,768z" class="st5"/><path d="M192.9,661L192.9,661l-15-66.1L47.3,618.3l12.6,64.8c0.4,4.3,1.2,8.5,2.4,12.6l0,0.1l0,0 c8.3,28,34.1,48.4,64.8,48.4c37.3,0,67.6-30.3,67.6-67.6C194.7,671.3,194.1,666,192.9,661z" class="st5"/><circle cx="71.6" cy="631.3" r="3.8" class="st6"/><circle cx="64.5" cy="642.5" r="3.8" class="st5"/><circle cx="61.9" cy="633" r="3.8" class="st5"/><path d="M108.1,687.5c0,0-0.7,13.6,13,12.3c13.7-1.3,41.8-19.7,42.6-39.7c0,0-2,45.8-45.6,48.8 c-16.7,1.1-18.5-11.2-14.4-26.9L108.1,687.5z" class="st7"/><path d="M121.7,690.6l-28.4-6.6c-2.3-0.5-3.2-3.3-1.7-5.1l14.8-17.5c0.5-0.6,1.3-1,2.1-1.1l24.9-2.3 c2.4-0.2,4.1,2.2,3.2,4.4l-11.3,26.4C124.7,690.2,123.2,691,121.7,690.6z" class="st8"/><polygon points="194.2 768 124.6 768 191.2 754.5" class="st10"/><path d="M177.9,594.9L47.3,618.3L26,531.1c-4.4-17.9,7.2-35.7,25.3-39.1l38.7-7.2c21.7-4,43.4,7.5,52.2,27.8 L177.9,594.9z" class="st5"/><line x1="15.6" x2="177.3" y1="545.7" y2="516.9" class="st5"/><line x1="28.3" x2="145.1" y1="540.2" y2="519.4" class="st5"/><line x1="60.6" x2="127.1" y1="555.4" y2="543" class="st5"/><path d="M137,536.4l-86.1,16.8c-2.7,0.5-4.3,3.2-3.6,5.9h0c0.7,2.3,3,3.8,5.3,3.3l86.4-15.7c2.8-0.5,4.5-3.4,3.6-6.1 l-0.4-1.1C141.5,537.3,139.3,536,137,536.4z" class="st5"/><polygon points="88.4 472.6 64 476.4 23.3 354.8 45.8 352.2" class="st11"/><polygon points="64 476.4 55.9 477.7 23.3 382.6 23.3 354.8" class="st0"/><polygon points="48.5 768 41.2 768 42.8 751.5" class="st0"/><path d="M82.5,406.3c0,8.7-3.7,16.7-9.7,22.3c-4.2,3.9-9.4,6.6-15.4,7.6l-6.5,1.1h0l-8.4,1.5l-17.2,3 c-8.5,1.5-16.8,0.5-24.2-2.6c-0.4-0.1-0.8-0.3-1.1-0.5V210.6h59.4c8.9,0,16.2,7.1,16.6,16L82.5,406.3z" class="st1"/><polygon points="70.1 310.3 0 310.3 0 227.9 60.3 227.9" class="st12"/><g><g><g><path d="M52,239.1c-0.2,0-0.3,0-0.5,0c-0.2,0-0.3-0.1-0.5-0.1c-0.1-0.1-0.3-0.1-0.4-0.2c-0.1-0.1-0.3-0.2-0.4-0.3 c-0.1-0.1-0.2-0.2-0.3-0.4c-0.1-0.1-0.2-0.3-0.2-0.4s-0.1-0.3-0.1-0.5c0-0.2-0.1-0.3-0.1-0.5c0-0.2,0-0.3,0.1-0.5 c0-0.2,0.1-0.3,0.1-0.5c0.1-0.1,0.1-0.3,0.2-0.4c0.1-0.1,0.2-0.3,0.3-0.4c0.9-0.9,2.6-0.9,3.5,0c0.1,0.1,0.2,0.2,0.3,0.4 c0.1,0.1,0.2,0.3,0.2,0.4c0.1,0.2,0.1,0.3,0.1,0.5c0,0.2,0,0.3,0,0.5c0,0.2,0,0.3,0,0.5c0,0.2-0.1,0.3-0.1,0.5 c-0.1,0.1-0.1,0.3-0.2,0.4c-0.1,0.1-0.2,0.3-0.3,0.4C53.3,238.8,52.6,239.1,52,239.1z" class="st19"/></g><g><path d="M1.5,285.5c-0.5-0.5-1.1-0.8-1.8-0.8v5c0.6,0,1.2-0.2,1.7-0.7c0.5-0.5,0.8-1.1,0.8-1.8 C2.2,286.6,2,286,1.5,285.5z M8,279.2c-0.5-0.5-1.1-0.8-1.8-0.8c-0.6,0-1.3,0.2-1.7,0.7c-1,1-1,2.5,0,3.5 c0.5,0.5,1.1,0.8,1.8,0.8c0.6,0,1.2-0.2,1.7-0.7c0.5-0.5,0.8-1.1,0.8-1.8C8.7,280.3,8.5,279.7,8,279.2z M14.5,272.9 c-0.5-0.5-1.1-0.8-1.8-0.8c-0.6,0-1.2,0.2-1.7,0.7c-1,1-1,2.5-0.1,3.5c0.5,0.5,1.1,0.8,1.8,0.8c0.6,0,1.2-0.2,1.7-0.7 c0.5-0.5,0.8-1.1,0.8-1.8C15.3,274,15,273.4,14.5,272.9z M21.8,268c0-0.1,0-0.2-0.1-0.3c0-0.1,0-0.2-0.1-0.3 c0-0.1-0.1-0.2-0.1-0.3c-0.1-0.1-0.1-0.2-0.2-0.2s-0.1-0.2-0.2-0.2c0,0-0.1-0.1-0.1-0.1c0,0-0.1-0.1-0.1-0.1 c-0.1-0.1-0.2-0.1-0.2-0.2c-0.1-0.1-0.2-0.2-0.4-0.2c-0.1-0.1-0.2-0.1-0.3-0.2c-0.1,0-0.3-0.1-0.4-0.1c-0.1,0-0.2,0-0.4,0 c-0.1,0-0.2,0-0.3,0c-0.1,0-0.2,0-0.3,0c-0.1,0-0.2,0-0.3,0.1c-0.1,0-0.2,0.1-0.3,0.1c0,0,0,0,0,0c-0.1,0-0.2,0.1-0.2,0.1 c-0.1,0-0.2,0.1-0.2,0.2c0,0-0.1,0.1-0.1,0.1c0,0-0.1,0.1-0.1,0.1c-0.1,0.1-0.1,0.2-0.2,0.2c-0.1,0.1-0.2,0.2-0.2,0.4 c0,0.1-0.1,0.2-0.1,0.3c0,0,0,0,0,0c0,0.1-0.1,0.2-0.1,0.3c0,0,0,0,0,0c0,0.1,0,0.2,0,0.4v0c0,0.1,0,0.2,0,0.3 c0,0.1,0,0.2,0,0.3c0,0.1,0.1,0.2,0.1,0.4c0.1,0.1,0.1,0.3,0.2,0.4c0.2,0.2,0.4,0.5,0.6,0.7l0.4,0.2c0.1,0.1,0.2,0.1,0.3,0.1 l0.5,0.1c0.1,0,0.2,0,0.3,0c0.1,0,0.2,0,0.3,0c0.1,0,0.2,0,0.3-0.1c0.1,0,0.2,0,0.2-0.1c0.9-0.5,1.1-0.7,1.2-0.9 c0.1-0.1,0.2-0.2,0.2-0.4c0-0.1,0.1-0.2,0.1-0.3c0-0.2,0.1-0.3,0.1-0.5c0-0.1,0-0.2,0-0.3v0C21.8,268.2,21.8,268.1,21.8,268z M27.6,260.2c-0.5-0.5-1.1-0.8-1.8-0.8c-0.6,0-1.2,0.2-1.7,0.7c-1,1-1,2.6-0.1,3.5c0.5,0.5,1.1,0.8,1.8,0.8 c0.6,0,1.2-0.2,1.7-0.7c0.5-0.5,0.8-1.1,0.8-1.8C28.3,261.3,28.1,260.7,27.6,260.2z M34.2,253.9c-0.5-0.5-1.1-0.8-1.8-0.8 c-0.6,0-1.3,0.2-1.8,0.7c-1,1-1,2.5,0,3.5c0.5,0.5,1.1,0.8,1.8,0.8c0.6,0,1.3-0.2,1.7-0.7c0.5-0.5,0.8-1.1,0.8-1.8 C34.9,255,34.6,254.4,34.2,253.9z M40.7,247.5c-0.5-0.5-1.1-0.8-1.8-0.8c-0.6,0-1.3,0.2-1.7,0.7c-1,1-1,2.5-0.1,3.5 c0.5,0.5,1.1,0.8,1.8,0.8c0.6,0,1.2-0.2,1.7-0.7c0.5-0.5,0.8-1.1,0.8-1.8C41.4,248.7,41.2,248,40.7,247.5z M47.2,241.2 c-0.5-0.5-1.1-0.8-1.8-0.8c-0.6,0-1.3,0.2-1.7,0.7c-1,1-1,2.6,0,3.5c0.5,0.5,1.1,0.8,1.8,0.8c0.6,0,1.3-0.2,1.7-0.7 c0.5-0.5,0.8-1.1,0.8-1.8C47.9,242.3,47.7,241.7,47.2,241.2z" class="st19"/></g></g><g><g><path d="M56.1,297.5c-0.2,0-0.3,0-0.5,0c-0.1,0-0.3-0.1-0.5-0.1c-0.1-0.1-0.3-0.1-0.4-0.2 c-0.1-0.1-0.3-0.2-0.4-0.3c-0.1-0.1-0.2-0.2-0.3-0.4c-0.1-0.1-0.2-0.3-0.2-0.4c-0.1-0.1-0.1-0.3-0.2-0.5c0-0.2,0-0.3,0-0.5 c0-0.7,0.3-1.3,0.7-1.8c0.1-0.1,0.2-0.2,0.4-0.3c0.1-0.1,0.3-0.2,0.4-0.2c0.2-0.1,0.3-0.1,0.5-0.1c0.3-0.1,0.7-0.1,1,0 c0.2,0,0.3,0.1,0.5,0.1c0.1,0.1,0.3,0.1,0.4,0.2c0.1,0.1,0.3,0.2,0.4,0.3c0.5,0.5,0.7,1.1,0.7,1.8s-0.3,1.3-0.7,1.8 c-0.1,0.1-0.2,0.2-0.4,0.3c-0.1,0.1-0.3,0.2-0.4,0.2s-0.3,0.1-0.5,0.1C56.4,297.5,56.3,297.5,56.1,297.5z" class="st19"/></g><g><path d="M50.2,287.6c-0.4-0.3-1-0.5-1.5-0.5c-0.8,0-1.5,0.4-2,1c-0.8,1.1-0.6,2.7,0.6,3.5c0.4,0.3,1,0.5,1.5,0.5 c0.8,0,1.5-0.3,2-1c0.3-0.4,0.5-1,0.5-1.5C51.2,288.9,50.9,288.1,50.2,287.6z M42.8,282.3c-0.4-0.3-0.9-0.5-1.5-0.5 c-0.8,0-1.5,0.3-2,1c-0.8,1.1-0.6,2.7,0.6,3.5c0.4,0.3,1,0.5,1.5,0.5c0.8,0,1.5-0.4,2-1c0.3-0.4,0.5-1,0.5-1.5 C43.9,283.5,43.5,282.8,42.8,282.3z M35.5,277c-0.4-0.3-1-0.5-1.5-0.5c-0.8,0-1.5,0.4-2,1c-0.8,1.1-0.6,2.7,0.5,3.5 c0.5,0.3,1,0.5,1.5,0.5c0.8,0,1.5-0.4,2-1c0.3-0.5,0.5-1,0.5-1.5C36.5,278.2,36.2,277.4,35.5,277z M28.1,271.6 c-0.4-0.3-1-0.5-1.5-0.5c-0.8,0-1.5,0.4-2,1c-0.8,1.1-0.6,2.7,0.6,3.5c0.4,0.3,1,0.5,1.5,0.5c0.8,0,1.5-0.4,2-1 c0.3-0.4,0.5-0.9,0.5-1.5C29.2,272.9,28.8,272.1,28.1,271.6z M21.8,268c0-0.1,0-0.2-0.1-0.3c0-0.1,0-0.2-0.1-0.3 c0-0.1-0.1-0.2-0.1-0.3c-0.1-0.1-0.1-0.2-0.2-0.2s-0.1-0.2-0.2-0.2c-0.1-0.1-0.1-0.1-0.2-0.2c-0.1-0.1-0.2-0.1-0.2-0.2 c-0.1-0.1-0.2-0.2-0.4-0.2c-0.1-0.1-0.2-0.1-0.3-0.2c-0.1,0-0.3-0.1-0.4-0.1c-0.1,0-0.2,0-0.4,0c-0.1,0-0.2,0-0.3,0 c-0.1,0-0.2,0-0.3,0c-0.1,0-0.2,0-0.3,0.1c-0.1,0-0.2,0.1-0.3,0.1c0,0,0,0,0,0c-0.1,0-0.2,0.1-0.2,0.1c-0.1,0-0.2,0.1-0.2,0.2 c-0.1,0.1-0.1,0.1-0.2,0.2c-0.1,0.1-0.1,0.2-0.2,0.2c-0.1,0.1-0.2,0.2-0.2,0.4c0,0.1-0.1,0.2-0.1,0.3c0,0,0,0,0,0 c0,0.1-0.1,0.2-0.1,0.3c0,0,0,0,0,0c0,0.1,0,0.2,0,0.4v0c0,0.1,0,0.2,0,0.3c0,0.1,0,0.2,0,0.3c0,0.1,0.1,0.2,0.1,0.4 c0.1,0.1,0.1,0.3,0.2,0.4c0.2,0.2,0.4,0.5,0.6,0.7l0.4,0.2c0.1,0.1,0.2,0.1,0.3,0.1l0.5,0.1c0.1,0,0.2,0,0.3,0 c0.1,0,0.2,0,0.3,0c0.1,0,0.2,0,0.3-0.1c0.1,0,0.2,0,0.2-0.1c0.9-0.5,1.1-0.7,1.2-0.9c0.1-0.1,0.2-0.2,0.2-0.4 c0-0.1,0.1-0.2,0.1-0.3c0-0.2,0.1-0.3,0.1-0.5c0-0.1,0-0.2,0-0.3v0C21.8,268.2,21.8,268.1,21.8,268z M13.4,260.9 c-0.4-0.3-1-0.5-1.5-0.5c-0.8,0-1.5,0.4-2,1c-0.8,1.1-0.6,2.7,0.6,3.5c0.4,0.3,1,0.5,1.5,0.5c0.8,0,1.5-0.4,2-1 c0.3-0.4,0.5-1,0.5-1.5C14.4,262.2,14.1,261.4,13.4,260.9z M6,255.6c-0.4-0.3-1-0.5-1.5-0.5c-0.8,0-1.5,0.4-2,1 c-0.8,1.1-0.6,2.7,0.6,3.5c0.4,0.3,1,0.5,1.5,0.5c0.8,0,1.5-0.4,2-1c0.3-0.5,0.5-1,0.5-1.5C7.1,256.8,6.7,256,6,255.6z M-0.3,252.1v0.3c0,0,0-0.1,0-0.1C-0.3,252.2-0.3,252.1-0.3,252.1z" class="st19"/></g></g></g></g><g><polygon points="1309.1 0 1307.2 0 1308 -.8" class="st8"/><polygon points="1308 -.8 1307.2 0 1309.1 0 1308 -.8"/></g></svg>