<svg xmlns="http://www.w3.org/2000/svg" xmlns:xlink="http://www.w3.org/1999/xlink" style="enable-background:new 0 0 1366 768" id="Layer_2" x="0" y="0" version="1.1" viewBox="0 0 1366 768" xml:space="preserve"><style type="text/css">.st0{fill:gray}.st0,.st1,.st2,.st3,.st4,.st5,.st6{stroke:#000;stroke-miterlimit:10}.st1{fill:#1a1a1a}.st2{fill:#333}.st3{fill:#666}.st4{fill:#fcee21}.st5{fill:none}.st6{fill:#f15a24}.st7{fill:#fff}.st8{fill:#999;stroke:#000;stroke-miterlimit:10}.st9{fill:#b3b3b3}.st10{fill:#4d4d4d;stroke:#000;stroke-miterlimit:10}.st11{fill:#0071bc}.st11,.st12{stroke:#000;stroke-miterlimit:10}.st13,.st14,.st15,.st16{fill:none;stroke:#009245;stroke-width:5;stroke-linecap:round;stroke-linejoin:round}.st14{stroke-dasharray:0,9.7163}.st15{stroke-dasharray:0,9.4086}.st16{stroke-dasharray:0,9.1563}</style><g><polygon points="1322.9 371.6 1326 340.4 1298.1 167.2 1283.5 167.2" class="st0"/><path d="M1317.5,172.4h-2.6l-11.2,0l-2.8,0h-1.9l-12.8,0l-1.4,1.3l-23.3,20.3c0.5,2.6,0.7,5.1,0.7,7.6 c0,18.2-12.1,34.2-29.6,37.5c-19.9,3.7-39.3-10.4-43.2-31.6L1150.8,1.1c-0.1-0.4-0.1-0.8-0.2-1.1h74.6l13.7,73.7l36.6,23.9h34.8 l3.3,34.4l0.7,7.2l0.5,5.5l2.4,25.1L1317.5,172.4z" class="st1"/><polygon points="1296.9 141.9 1348 134.1 1331.1 83 1292.5 89.1" class="st2"/><polygon points="1366 75.6 1366 156.7 1354.3 161.3 1346.8 134.3 1345.4 129.2 1342.6 119.1 1342.6 119.1 1340.8 112.4 1340.8 112.3 1340.8 112.3 1340.2 110.5 1340.2 110.4 1334.2 88.8 1350.8 82.3 1365.3 76.6" class="st1"/><polygon points="1366 115.4 1366 226.7 1342.3 231 1329.7 233.2 1317.5 235.4 1304.2 174.8 1304.2 174.8 1303.7 172.4 1296.9 141.9 1313.6 132 1332.9 120.6 1336.5 120 1342.6 119.1 1342.6 119.1 1343 119 1343.1 119 1362.7 115.9" class="st3"/><polygon points="1366 226.7 1366 382.7 1359.4 384 1350 385.9 1317.5 235.4 1329.7 233.2 1342.3 231" class="st3"/><path d="M1366,382.7v40.2c-2.9-0.8-5.8-1.8-8.7-2.9l-4.2-1.6l-3-32.6l9.3-1.9L1366,382.7z" class="st3"/><polygon points="1317.5 235.4 1350 385.9 1353.1 418.4 1320.3 323.9 1296.9 141.9" class="st3"/><path id="Scanner_2_" d="M1366,241.9v76.5c-11.8-8.6-19.4-22.5-19.4-38.2S1354.2,250.5,1366,241.9z" class="st4"/><path d="M1366,337.4v45.3l-6.6,1.3l-7.7-41c-0.1-0.5-0.2-1.1-0.2-1.6c0-4,2.9-7.6,7-8.3 C1360.9,334.7,1363.4,336.2,1366,337.4z" class="st5"/><path d="M1366,226.7v100.2c-11.6-6.9-20.3-18-24.2-31.2h0l0-0.1c-1-3.3-1.6-6.7-2-10.1l-10.1-52.2l12.6-2.3L1366,226.7 z" class="st5"/><circle cx="1349.2" cy="243.7" r="3.1" class="st6"/><circle cx="1343.5" cy="252.6" r="3.1" class="st5"/><circle cx="1341.4" cy="245" r="3.1" class="st5"/><path d="M1366,281.2v4.6c-1.3-0.8-1.7-2.6-0.7-3.8L1366,281.2z" class="st7"/><polygon points="1366 415.9 1366 544 1353.1 541.5 1353.1 418.4" class="st0"/><path d="M1366,125.5v101.2l-23.7,4.2l-12.6,2.3l-14.7-60.3l-0.1-0.5l-0.5-2.1l-1.8-7.3c-1.6-6.4-0.6-12.9,2.3-18.3 c1.2-2.3,2.8-4.4,4.7-6.2c3.5-3.5,8.1-6,13.3-6.9l12.6-2.3l0.9-0.2l17.7-3.3C1364.7,125.6,1365.3,125.5,1366,125.5z" class="st5"/><polyline points="1366 163.8 1317.5 172.4 1314.9 172.9 1304.2 174.8 1304.2 174.8" class="st5"/><polyline points="1366 161.1 1317.2 169.8 1314.3 170.3" class="st5"/><line x1="1340.4" x2="1366" y1="182.6" y2="177.8" class="st5"/><path d="M1366,174.3v8.1l-32.1,5.8c-0.2,0-0.4,0.1-0.7,0.1c-1.7,0-3.2-1.1-3.6-2.8c-0.6-2.1,0.7-4.3,2.9-4.7 L1366,174.3z" class="st5"/><polygon points="1362.7 115.9 1343.1 119 1310.4 21.1 1328.4 19" class="st8"/><polygon points="1343.1 119 1336.5 120 1310.4 43.5 1310.4 21.1" class="st0"/><polygon points="1353.1 541.5 1353.1 418.4 1326 340.4 1322.9 371.6" class="st0"/><path d="M1358,62.6c0,7-3,13.4-7.8,17.9c-3.3,3.1-7.6,5.3-12.4,6.1l-5.2,0.9h0l-6.7,1.2h0l-13.9,2.4 c-6.8,1.2-13.5,0.4-19.5-2.1h0c-11.3-4.6-20-15-21.8-28.1l-7.5-61h92.5L1358,62.6z" class="st1"/></g><g><polygon points="638.1 515.4 641.3 484.3 613.4 311.1 598.8 311.1" class="st0"/><path d="M590.8,241.4l-36.6-23.9l-16-86c-3.9-21.2-23.3-35.3-43.2-31.6l0,0c-19.9,3.7-32.9,23.9-28.9,45.1l38.5,206.4 c3.9,21.2,23.3,35.3,43.2,31.6l0,0c19.9-3.7,32.9-23.9,28.9-45.1l0,0l24.8-21.6l31.3,0l-7.1-74.8H590.8z" class="st1"/><polygon points="612.2 285.8 663.2 278 646.3 226.8 607.7 233" class="st2"/><path d="M680.6,220.4l24.2-35.3l-16-86c-3.9-21.2,8.3-41.2,27.5-44.8l0,0c19.1-3.6,37.8,10.7,41.8,31.9l38.5,206.4 c3.9,21.2-8.3,41.2-27.5,44.8h0c-19.1,3.6-37.8-10.7-41.8-31.9l0,0l-29.8-11.4l-27.9,11l-20.1-72.4L680.6,220.4z" class="st1"/><polygon points="775.6 353.6 632.7 379.3 612.2 285.8 648.1 264.4 689.3 258 736.2 266" class="st3"/><polygon points="808.5 501.3 665.3 529.7 632.7 379.3 775.6 353.6" class="st3"/><path d="M796.9,536.6l-10.3,8.4c-32,26.2-75.5,33.4-114.1,18.8l-4.2-1.6l-3-32.6l143.2-28.5L796.9,536.6z" class="st3"/><polygon points="632.7 379.3 665.3 529.7 668.3 562.3 635.5 467.7 612.2 285.8" class="st3"/><circle id="Scanner" cx="709.1" cy="424" r="47.3" class="st4"/><path d="M760.2,462.2l-0.1,0c-11.6,15.5-30.1,25.5-51,25.5c-13.1,0-25.3-4-35.4-10.7l0,0c-4.7,0.8-7.8,5.3-6.9,9.9 l7.7,41l102.2-20.3L770,469C769.1,464.5,764.8,461.4,760.2,462.2z" class="st5"/><path d="M762,411.4L762,411.4l-12-53.2l-105.1,18.9l10.1,52.2c0.3,3.5,1,6.9,2,10.1l0,0.1l0,0 c6.7,22.5,27.5,38.9,52.1,38.9c30,0,54.4-24.4,54.4-54.4C763.5,419.7,763,415.5,762,411.4z" class="st5"/><circle cx="664.4" cy="387.5" r="3.1" class="st6"/><circle cx="658.7" cy="396.5" r="3.1" class="st5"/><circle cx="656.6" cy="388.9" r="3.1" class="st5"/><path d="M693.8,432.7c0,0-0.6,10.9,10.4,9.9c11-1,33.7-15.8,34.3-31.9c0,0-1.6,36.9-36.7,39.3 c-13.5,0.9-14.9-9-11.6-21.6L693.8,432.7z" class="st9"/><path d="M704.8,435.3l-22.8-5.3c-1.8-0.4-2.6-2.7-1.4-4.1l11.9-14.1c0.4-0.5,1-0.8,1.7-0.9l20.1-1.9 c1.9-0.2,3.3,1.8,2.6,3.5l-9.1,21.3C707.2,434.9,706,435.5,704.8,435.3z" class="st7"/><path d="M757.8,685.3L757.8,685.3c-20.7,7.4-43.1,9.1-64.7,4.9l-24.9-4.9v-123l128.6-25.7L757.8,685.3z" class="st0"/><polygon points="759.6 529.7 703.6 543.1 702.7 532.7 759.6 520.5" class="st10"/><polygon points="764.6 504.2 685.8 520.5 682.1 502.6 760.7 486.7" class="st11"/><path d="M750,358.2l-105.1,18.9l-17.1-70.2c-3.5-14.4,5.8-28.8,20.3-31.5l31.1-5.8c17.5-3.2,34.9,6,42,22.3L750,358.2z" class="st5"/><line x1="619.4" x2="749.5" y1="318.6" y2="295.4" class="st5"/><line x1="629.5" x2="723.6" y1="314.1" y2="297.4" class="st5"/><line x1="655.6" x2="709.1" y1="326.5" y2="316.5" class="st5"/><path d="M717.1,311.2l-69.3,13.5c-2.2,0.4-3.5,2.6-2.9,4.7v0c0.5,1.9,2.4,3,4.3,2.7l69.6-12.6c2.3-0.4,3.6-2.7,2.9-4.9 l-0.3-0.9C720.7,311.9,718.9,310.8,717.1,311.2z" class="st5"/><polygon points="677.9 259.8 658.3 262.8 625.6 165 643.6 162.9" class="st8"/><polygon points="658.3 262.8 651.8 263.9 625.6 187.3 625.6 165" class="st0"/><polygon points="668.3 685.3 668.3 562.3 641.3 484.3 638.1 515.4" class="st0"/><path d="M653,230.5l-25.8,4.5c-19.8,3.5-38.6-10.2-41.3-30.2L568.6,63.9c-1-8,5.2-15,13.2-15h72.8 c7.2,0,13.1,5.7,13.3,12.9l5.3,144.7C673.2,218.3,664.7,228.4,653,230.5z" class="st1"/><polygon points="663.2 129.2 588 129.2 580.1 62.8 655.3 62.8" class="st12"/><g><g><g><line x1="597" x2="597" y1="92.6" y2="92.6" class="st13"/><line x1="596.2" x2="594.9" y1="102.3" y2="116.8" class="st14"/><line x1="594.5" x2="594.5" y1="121.6" y2="121.6" class="st13"/><line x1="604" x2="618.1" y1="121.6" y2="121.5" class="st15"/><line x1="622.8" x2="622.8" y1="121.5" y2="121.5" class="st13"/></g></g><g><g><line x1="647.1" x2="647.1" y1="70.7" y2="70.7" class="st13"/><line x1="640.6" x2="597.8" y1="77" y2="118.5" class="st16"/><line x1="594.5" x2="594.5" y1="121.6" y2="121.6" class="st13"/></g></g></g></g><g><polygon points="980.8 447.5 983.9 416.3 956 243.1 941.4 243.1" class="st0"/><path d="M933.4,173.5l-36.6-23.9l-16-86c-3.9-21.2-23.3-35.3-43.2-31.6l0,0c-19.9,3.7-32.9,23.9-28.9,45.1l38.5,206.4 c3.9,21.2,23.3,35.3,43.2,31.6l0,0c19.9-3.7,32.9-23.9,28.9-45.1l0,0l24.8-21.6l31.3,0l-7.1-74.8H933.4z" class="st1"/><polygon points="954.8 217.8 1005.8 210 988.9 158.9 950.3 165" class="st2"/><path d="M1111.6,269.5c-2,0.4-3.9,0.5-5.9,0.5c-16.9,0-32.3-13.4-35.9-32.4l-29.8-11.4l-28,11l-20.1-72.4l31.1-12.3 l24.2-35.2l-16-86c-2.2-11.6,0.5-22.8,6.5-31.2h54.5c4,5.1,6.9,11.3,8.2,18.3l38.5,206.4C1143.1,245.8,1130.8,265.9,1111.6,269.5z" class="st1"/><polygon points="1118.3 285.6 975.3 311.3 954.8 217.8 990.7 196.5 1032 190.1 1078.9 198" class="st3"/><polygon points="1151.1 433.3 1007.9 461.7 975.3 311.3 1118.3 285.6" class="st3"/><path d="M1139.6,468.7l-10.3,8.4c-32,26.2-75.5,33.4-114.1,18.8l-4.2-1.6l-3-32.6l143.2-28.5L1139.6,468.7z" class="st3"/><polygon points="975.3 311.3 1007.9 461.7 1010.9 494.3 978.2 399.8 954.8 217.8" class="st3"/><circle id="Scanner_1_" cx="1051.8" cy="356.1" r="47.3" class="st4"/><path d="M1102.8,394.2l-0.1,0c-11.6,15.5-30.1,25.5-51,25.5c-13.1,0-25.3-4-35.4-10.7l0,0c-4.7,0.8-7.8,5.3-6.9,9.9 l7.7,41l102.2-20.3l-6.9-38.5C1111.8,396.5,1107.4,393.4,1102.8,394.2z" class="st5"/><path d="M1104.7,343.4L1104.7,343.4l-12-53.2l-105.1,18.9l10.1,52.2c0.3,3.5,1,6.9,2,10.1l0,0.1l0,0 c6.7,22.5,27.5,38.9,52.1,38.9c30,0,54.4-24.4,54.4-54.4C1106.2,351.7,1105.6,347.5,1104.7,343.4z" class="st5"/><circle cx="1007" cy="319.6" r="3.1" class="st6"/><circle cx="1001.3" cy="328.5" r="3.1" class="st5"/><circle cx="999.3" cy="320.9" r="3.1" class="st5"/><path d="M1036.4,364.8c0,0-0.6,10.9,10.4,9.9s33.7-15.8,34.3-31.9c0,0-1.6,36.9-36.7,39.3c-13.5,0.9-14.9-9-11.6-21.6 L1036.4,364.8z" class="st9"/><path d="M1047.4,367.3l-22.8-5.3c-1.8-0.4-2.6-2.7-1.4-4.1l11.9-14.1c0.4-0.5,1-0.8,1.7-0.9l20.1-1.9 c1.9-0.2,3.3,1.8,2.6,3.5l-9.1,21.3C1049.8,367,1048.6,367.6,1047.4,367.3z" class="st7"/><path d="M1100.5,617.4L1100.5,617.4c-20.7,7.4-43.1,9.1-64.7,4.9l-24.9-4.9v-123l128.6-25.7L1100.5,617.4z" class="st0"/><polygon points="1102.2 461.7 1046.3 475.1 1045.3 464.8 1102.2 452.6" class="st10"/><polygon points="1107.3 436.2 1028.5 452.6 1024.7 434.7 1103.3 418.7" class="st11"/><path d="M1092.6,290.2l-105.1,18.9l-17.1-70.2c-3.5-14.4,5.8-28.8,20.3-31.5l31.1-5.8c17.5-3.2,34.9,6,42,22.3 L1092.6,290.2z" class="st5"/><line x1="962" x2="1092.1" y1="250.7" y2="227.5" class="st5"/><line x1="972.2" x2="1066.2" y1="246.2" y2="229.5" class="st5"/><line x1="998.2" x2="1051.8" y1="258.5" y2="248.5" class="st5"/><path d="M1059.7,243.2l-69.3,13.5c-2.2,0.4-3.5,2.6-2.9,4.7v0c0.5,1.9,2.4,3,4.3,2.7l69.6-12.6 c2.3-0.4,3.6-2.7,2.9-4.9l-0.3-0.9C1063.4,243.9,1061.5,242.8,1059.7,243.2z" class="st5"/><polygon points="1020.6 191.8 1001 194.9 968.2 97 986.3 94.9" class="st8"/><polygon points="1001 194.9 994.4 195.9 968.2 119.3 968.2 97" class="st0"/><polygon points="1010.9 617.4 1010.9 494.3 983.9 416.3 980.8 447.5" class="st0"/><path d="M1015.9,138.5c0,11.9-8.5,22-20.2,24.1l-25.8,4.5c-19.8,3.5-38.6-10.2-41.3-30.2L911.7,0h99.2L1015.9,138.5z" class="st1"/><polygon points="1005.8 61.2 930.6 61.2 923.3 0 998.5 0" class="st12"/><g><g><g><line x1="940.1" x2="940.1" y1="24.6" y2="24.6" class="st13"/><line x1="939.3" x2="938.1" y1="34.3" y2="48.8" class="st14"/><line x1="937.7" x2="937.7" y1="53.7" y2="53.7" class="st13"/><line x1="947.1" x2="961.2" y1="53.6" y2="53.6" class="st15"/><line x1="965.9" x2="965.9" y1="53.6" y2="53.6" class="st13"/></g></g><g><g><line x1="990.3" x2="990.3" y1="2.7" y2="2.7" class="st13"/><line x1="983.7" x2="941" y1="9.1" y2="50.5" class="st16"/><line x1="937.7" x2="937.7" y1="53.7" y2="53.7" class="st13"/></g></g></g></g><g><polygon points="291.1 583.4 294.2 552.3 266.3 379.1 251.7 379.1" class="st0"/><path d="M243.7,309.4l-36.6-23.9l-16-86c-3.9-21.2-23.3-35.3-43.2-31.6l0,0c-19.9,3.7-32.9,23.9-28.9,45.1l38.5,206.4 c3.9,21.2,23.3,35.3,43.2,31.6l0,0c19.9-3.7,32.9-23.9,28.9-45.1l0,0l24.8-21.6l31.3,0l-7.1-74.8H243.7z" class="st1"/><polygon points="265.1 353.8 316.1 346 299.2 294.8 260.6 301" class="st2"/><path d="M333.5,288.4l24.2-35.3l-16-86c-3.9-21.2,8.3-41.2,27.5-44.8l0,0c19.1-3.6,37.8,10.7,41.8,31.9l38.5,206.4 c3.9,21.2-8.3,41.2-27.5,44.8l0,0c-19.1,3.6-37.8-10.7-41.8-31.9l0,0l-29.8-11.4l-27.9,11l-20.1-72.4L333.5,288.4z" class="st1"/><polygon points="428.6 421.6 285.6 447.3 265.1 353.8 301 332.4 342.3 326 389.2 334" class="st3"/><polygon points="461.4 569.2 318.2 597.7 285.6 447.3 428.6 421.6" class="st3"/><path d="M449.9,604.6l-10.3,8.4c-32,26.2-75.5,33.4-114.1,18.8l-4.2-1.6l-3-32.6l143.2-28.5L449.9,604.6z" class="st3"/><polygon points="285.6 447.3 318.2 597.7 321.2 630.3 288.4 535.7 265.1 353.8" class="st3"/><circle id="Scanner_3_" cx="362.1" cy="492" r="47.3" class="st4"/><path d="M413.1,530.2l-0.1,0c-11.6,15.5-30.1,25.5-51,25.5c-13.1,0-25.3-4-35.4-10.7l0,0c-4.7,0.8-7.8,5.3-6.9,9.9 l7.7,41l102.2-20.3l-6.9-38.5C422.1,532.4,417.7,529.4,413.1,530.2z" class="st5"/><path d="M415,479.4L415,479.4l-12-53.2l-105.1,18.9l10.1,52.2c0.3,3.5,1,6.9,2,10.1l0,0.1l0,0 c6.7,22.5,27.5,38.9,52.1,38.9c30,0,54.4-24.4,54.4-54.4C416.5,487.7,415.9,483.5,415,479.4z" class="st5"/><circle cx="317.3" cy="455.5" r="3.1" class="st6"/><circle cx="311.6" cy="464.5" r="3.1" class="st5"/><circle cx="309.6" cy="456.9" r="3.1" class="st5"/><path d="M346.7,500.7c0,0-0.6,10.9,10.4,9.9c11-1,33.7-15.8,34.3-31.9c0,0-1.6,36.9-36.7,39.3 c-13.5,0.9-14.9-9-11.6-21.6L346.7,500.7z" class="st9"/><path d="M357.7,503.3l-22.8-5.3c-1.8-0.4-2.6-2.7-1.4-4.1l11.9-14.1c0.4-0.5,1-0.8,1.7-0.9l20.1-1.9 c1.9-0.2,3.3,1.8,2.6,3.5l-9.1,21.3C360.1,502.9,358.9,503.5,357.7,503.3z" class="st7"/><path d="M410.8,753.3L410.8,753.3c-20.7,7.4-43.1,9.1-64.7,4.9l-24.9-4.9v-123l128.6-25.7L410.8,753.3z" class="st0"/><polygon points="412.5 597.7 356.6 611.1 355.6 600.7 412.5 588.5" class="st10"/><polygon points="417.6 572.2 338.8 588.5 335 570.6 413.6 554.7" class="st11"/><path d="M402.9,426.2l-105.1,18.9l-17.1-70.2c-3.5-14.4,5.8-28.8,20.3-31.5l31.1-5.8c17.5-3.2,34.9,6,42,22.3 L402.9,426.2z" class="st5"/><line x1="272.3" x2="402.4" y1="386.6" y2="363.4" class="st5"/><line x1="282.5" x2="376.5" y1="382.1" y2="365.4" class="st5"/><line x1="308.5" x2="362.1" y1="394.4" y2="384.5" class="st5"/><path d="M370,379.2l-69.3,13.5c-2.2,0.4-3.5,2.6-2.9,4.7v0c0.5,1.9,2.4,3,4.3,2.7l69.6-12.6c2.3-0.4,3.6-2.7,2.9-4.9 l-0.3-0.9C373.7,379.8,371.8,378.8,370,379.2z" class="st5"/><polygon points="330.9 327.8 311.3 330.8 278.5 233 296.6 230.8" class="st8"/><polygon points="311.3 330.8 304.7 331.8 278.5 255.3 278.5 233" class="st0"/><polygon points="321.2 753.3 321.2 630.3 294.2 552.3 291.1 583.4" class="st0"/><path d="M306,298.5l-25.8,4.5c-19.8,3.5-38.6-10.2-41.3-30.2l-17.4-140.9c-1-8,5.2-15,13.2-15h72.8 c7.2,0,13.1,5.7,13.3,12.9l5.3,144.7C326.2,286.3,317.6,296.4,306,298.5z" class="st1"/><polygon points="316.1 197.1 240.9 197.1 233 130.8 308.2 130.8" class="st12"/><g><g><g><line x1="251.4" x2="251.4" y1="159.7" y2="159.7" class="st13"/><line x1="250.6" x2="249.4" y1="169.4" y2="184" class="st14"/><line x1="248.9" x2="248.9" y1="188.8" y2="188.8" class="st13"/><line x1="258.4" x2="272.5" y1="188.8" y2="188.7" class="st15"/><line x1="277.2" x2="277.2" y1="188.7" y2="188.7" class="st13"/></g></g><g><g><line x1="301.6" x2="301.6" y1="137.8" y2="137.8" class="st13"/><line x1="295" x2="252.2" y1="144.2" y2="185.6" class="st16"/><line x1="248.9" x2="248.9" y1="188.8" y2="188.8" class="st13"/></g></g></g></g><g><path d="M79,470.3c-0.2,0-0.4,0.1-0.6,0.1c-1.8,0.3-3.5,0.4-5.3,0.4c-11.2,0-21.7-5.9-28.6-15.3v0 c-3.4-4.7-5.9-10.3-7.2-16.5c0-0.2-0.1-0.4-0.1-0.6l-0.2-0.1h0l-10.8-4.1l-4.7-1.8L7.5,427L0,430v-90.3l14.8-21.6L0,238.6v-27 c3.9-12.3,13.6-21.9,26.2-24.3c2-0.4,3.9-0.5,5.9-0.5c16.9,0,32.3,13.4,35.9,32.4l38.5,206.4C110.4,446.7,98.1,466.8,79,470.3z" class="st1"/><polygon points="85.6 486.5 60 491.1 44.5 493.9 23.1 497.7 21 498.1 11 499.9 6 500.8 2.4 501.5 1.3 501.6 0 501.9 0 391 46.3 398.9 59.5 428.3 78.4 470.4" class="st3"/><polygon points="118.5 634.2 86.9 640.5 0 657.7 0 501.9 1.3 501.6 2.4 501.5 6 500.8 11 499.9 21 498.1 23.1 497.7 44.5 493.9 60 491.1 85.6 486.5" class="st3"/><path d="M118.5,634.2l-11.6,35.4L96.7,678C69.5,700.3,33.8,708.8,0,701.8v-44.1l86.9-17.2L118.5,634.2z" class="st3"/><path id="Scanner_4_" d="M66.5,556.9c0,26.1-21.2,47.3-47.3,47.3c-6.8,0-13.3-1.4-19.1-4v-86.6c5.8-2.6,12.3-4,19.1-4 C45.3,509.6,66.5,530.8,66.5,556.9z" class="st4"/><path d="M86.9,640.5L0,657.7v-40c6,1.9,12.5,2.9,19.1,2.9c20.8,0,39.4-10,51-25.5l0.1,0c4.6-0.8,8.9,2.3,9.7,6.8 L86.9,640.5z" class="st5"/><path d="M73.5,556.9c0,30-24.3,54.4-54.4,54.4c-6.7,0-13.2-1.2-19.1-3.5v-106l1.3-0.2l1.1-0.2l3.6-0.6l5-0.9l10-1.8 l2.1-0.4l21.3-3.8l15.6-2.8l12,53.2h0C73,548.4,73.5,552.6,73.5,556.9z" class="st5"/><path d="M48.3,545.8c-1,8.1-6.7,35-36.5,37c-6.4,0.4-10-1.5-11.8-5.1v-15.7c0.1-0.3,0.1-0.6,0.2-0.9l3.6,4.4l0,0 c0,0-0.6,10.9,10.4,9.9C24.7,574.5,45.8,561.1,48.3,545.8z" class="st9"/><path d="M48.5,543.7c0,0.1,0,0.2,0,0.4C48.5,543.9,48.5,543.8,48.5,543.7z" class="st9"/><path d="M48.3,545.8c0.1-0.8,0.2-1.4,0.2-1.8C48.4,544.7,48.4,545.2,48.3,545.8z" class="st9"/><path d="M26.8,545.4l-9.1,21.3c-0.5,1.1-1.7,1.8-2.9,1.5l-11-2.5l0,0L0,564.8v-17.2l2.5-2.9c0.4-0.5,1-0.8,1.7-0.9 l20.1-1.9C26.2,541.7,27.6,543.6,26.8,545.4z" class="st7"/><polygon points="106.9 669.5 81.1 768 0 768 0 690.9" class="st0"/><polygon points="69.6 662.6 13.6 676 12.7 665.6 69.6 653.4" class="st10"/><polygon points="74.7 637.1 0 652.6 0 633.9 70.7 619.6" class="st11"/><path d="M60,491.1l-15.6,2.8l-21.3,3.8l-2.1,0.4l-10,1.8l-5,0.9l-3.6,0.6l-1.1,0.2L0,501.9v-99.8 c13.5,1.3,25.6,9.9,31.2,22.8l2.4,5.5l1,2.4l2.4,5.6h0l0.3,0.6l7.2,16.5v0L60,491.1z" class="st5"/><polyline points="59.5 428.3 34.7 432.8 26.3 434.2 0 438.9" class="st5"/><polyline points="33.6 430.3 21.7 432.5 0 436.3" class="st5"/><line x1="0" x2="19.1" y1="452.9" y2="449.4" class="st5"/><path d="M28.8,452.3L0,457.6v-8.2l27.1-5.3c1.8-0.4,3.7,0.7,4.3,2.5l0.3,0.9C32.4,449.6,31,451.9,28.8,452.3z" class="st5"/></g></svg>