<?xml version="1.0" encoding="utf-8"?>
<!-- Generator: Adobe Illustrator 25.0.1, SVG Export Plug-In . SVG Version: 6.00 Build 0)  -->
<svg version="1.1" id="Layer_1" xmlns="http://www.w3.org/2000/svg" xmlns:xlink="http://www.w3.org/1999/xlink" x="0px" y="0px"
	 viewBox="0 0 152.8 1087.9" style="enable-background:new 0 0 152.8 1087.9;" xml:space="preserve">
<style type="text/css">
	.st0{display:none;fill:none;stroke:#000000;stroke-miterlimit:10;}
	.st1{fill:#FFCFB8;}
</style>
<path class="st0" d="M47.8,98.6l7.4,8.4c1.6,1.8,4.4,1.1,5.1-1.1v0l5.8,25.3l1.3,19.2l-9.7-8.1c-2.5-2.1-4.4-4.8-5.5-7.8l0,0
	c-2.2-6.1-5.9-11.6-10.7-15.9l0,0c-1.2-1.6-1.8-2.5-2.6-6.5v0c0-0.4-0.2-1-0.5-1.8c-1.1-3-2.8-5.8-4.8-8.4l-5-6.2
	c-0.9-1.4-0.5-3.2,0.8-4.2l0,0c2.8-2,6.5-2.1,9.5-0.4l0,0C42.1,93,45.2,95.6,47.8,98.6z"/>
<path class="st1" d="M108.1,1064H83.7c-6.2,0-11.2-5-11.4-11.1l-0.3-902.1h45.5l0.3,903.3C118,1059.5,113.6,1064,108.1,1064z"/>
<g>
	<path class="st1" d="M41.9,106.7l9.5,6.1c2,1.3,13.6,5,13.8-9.5l7.9,5.6l-4.6,24.1l3.7,18.5l-7.8-4.9c-0.6-0.4-1.3-0.7-1.9-1
		c-2.6-1.3-4.8-3.2-6.4-5.6l0,0c-3.8-5.3-8.9-9.5-14.7-12.3l0,0c-1.5-1.2-2.4-1.9-4.3-5.6l0,0c-0.1-0.4-0.5-0.9-1-1.6
		c-1.9-2.6-4.3-4.8-7-6.7l-6.5-4.6c-1.2-1.1-1.4-2.9-0.4-4.2l0,0c2.1-2.7,5.7-3.9,9-3h0C34.8,102.9,38.5,104.5,41.9,106.7z"/>
	<path class="st1" d="M126.2,47.9c-2.2,0.2-3.9,1.9-4.3,4l-6.3,34.8c-0.1,0.6-0.6,1-1.2,1h0c-0.7,0-1.2-0.6-1.2-1.3l1.7-49.5
		c0.1-3.3-2.4-6.3-5.7-6.6c-3.4-0.2-6.4,2.4-6.6,5.7l-2.9,45.1c0,0.6-0.6,1.1-1.2,1.1h-0.2c-0.7,0-1.2-0.6-1.2-1.2l0.6-52.5
		c0-3.1-2.1-6-5.2-6.5c-3.8-0.6-7.1,2.2-7.3,5.8l-2.8,53.3c0,0.6-0.5,1.1-1.2,1.1l-0.2,0c-0.6,0-1.2-0.4-1.3-1.1l-5.5-46.9
		c-0.3-2.7-2.5-4.9-5.1-5c-3.1-0.1-5.7,2.4-5.6,5.5l1.5,49.8v53.9c0,8.3,6.7,15.1,15.1,15.1h29.8c7.4,0,13.5-5.8,13.8-13.1l2.3-45.9
		l5.3-41.5C131.8,50.2,129.3,47.6,126.2,47.9z"/>
</g>
</svg>
