<?xml version="1.0" encoding="utf-8"?>
<!-- Generator: Adobe Illustrator 25.0.1, SVG Export Plug-In . SVG Version: 6.00 Build 0)  -->
<svg version="1.1" id="Layer_1" xmlns="http://www.w3.org/2000/svg" xmlns:xlink="http://www.w3.org/1999/xlink" x="0px" y="0px"
	 viewBox="0 0 1057 166" style="enable-background:new 0 0 1057 166;" xml:space="preserve">
<style type="text/css">
	.st0{fill:none;stroke:#000000;stroke-width:5;}
</style>
<g>
	<path class="st0" d="M125.6,12.2v35.2H88v106.4H43.6V47.4H6.4V12.2H125.6z"/>
	<path class="st0" d="M268.6,12.2v141.6h-44.4V98.6H182v55.2h-44.4V12.2H182v51h42.2v-51H268.6z"/>
	<path class="st0" d="M333,47.4V65h44v33.4h-44v20h50v35.4h-94.4V12.2H383v35.2H333z"/>
	<path class="st0" d="M478.2,108.8v45h-44.4V12.2h62c17.3,0,30.6,4.4,39.9,13.2c9.3,8.8,13.9,20.6,13.9,35.4c0,8.9-2.1,17-6.2,24.3
		c-4.1,7.3-10.2,13-18.3,17.3c-8.1,4.3-17.8,6.4-29.3,6.4H478.2z M504.6,60.8c0-8.7-4.6-13-13.8-13h-12.6v26h12.6
		C500,73.8,504.6,69.5,504.6,60.8z"/>
	<path class="st0" d="M608,47.4V65h44v33.4h-44v20h50v35.4h-94.4V12.2H658v35.2H608z"/>
	<path class="st0" d="M765.6,132.4h-47.2l-7,21.4h-46.6l51.8-141.6h51.2l51.6,141.6h-46.8L765.6,132.4z M754.8,99L742,59.6L729.2,99
		H754.8z"/>
	<path class="st0" d="M900.6,153.8L873.8,103v50.8h-44.4V12.2h66c11.5,0,21.3,2,29.4,6.1c8.1,4.1,14.2,9.6,18.3,16.6
		c4.1,7,6.1,14.9,6.1,23.7c0,9.5-2.6,17.9-7.9,25.2c-5.3,7.3-12.8,12.6-22.7,15.8l30.8,54.2H900.6z M873.8,73.4h17.6
		c4.3,0,7.5-1,9.6-2.9c2.1-1.9,3.2-5,3.2-9.1c0-3.7-1.1-6.7-3.3-8.8c-2.2-2.1-5.4-3.2-9.5-3.2h-17.6V73.4z"/>
	<path class="st0" d="M1007.8,120.2h42.8v33.6h-87.2V12.2h44.4V120.2z"/>
</g>
</svg>
